<?xml version="1.0" encoding="utf-8"?>
<!-- Generator: Adobe Illustrator 15.1.0, SVG Export Plug-In . SVG Version: 6.00 Build 0)  -->
<!DOCTYPE svg PUBLIC "-//W3C//DTD SVG 1.1//EN" "http://www.w3.org/Graphics/SVG/1.1/DTD/svg11.dtd">
<svg version="1.1" id="DIABLE_JEUNESSE_xA0_Image_1_"
	 xmlns="http://www.w3.org/2000/svg" xmlns:xlink="http://www.w3.org/1999/xlink" x="0px" y="0px" width="322.056px"
	 height="626.76px" viewBox="0 0 322.056 626.76" enable-background="new 0 0 322.056 626.76" xml:space="preserve">
<g>
	<path fill-rule="evenodd" clip-rule="evenodd" d="M54.648,19.008c0.265,0.023,0.638-0.061,0.792,0.072
		c-0.027,0.357-0.375,0.393-0.792,0.36C54.648,19.296,54.648,19.152,54.648,19.008z"/>
	<path fill-rule="evenodd" clip-rule="evenodd" d="M56.088,19.584c0.168,0.258,0.081,0.771-0.36,0.648
		c0.026-0.123-0.056-0.136-0.144-0.144C55.709,19.877,55.672,19.504,56.088,19.584z"/>
	<path fill-rule="evenodd" clip-rule="evenodd" d="M92.808,101.376c0.144,0,0.288,0,0.432,0c0,0.312,0,0.624,0,0.936
		c-0.144,0-0.288,0-0.432,0C92.808,102,92.808,101.688,92.808,101.376z"/>
	<path fill-rule="evenodd" clip-rule="evenodd" d="M92.664,109.44c0,0.096,0,0.192,0,0.288
		C92.387,109.785,92.387,109.383,92.664,109.44z"/>
	<path fill-rule="evenodd" clip-rule="evenodd" d="M90.792,141.264c0.096,0,0.192,0,0.288,0c0.036,0.275-0.099,0.381-0.288,0.432
		C90.792,141.552,90.792,141.408,90.792,141.264z"/>
	<path fill-rule="evenodd" clip-rule="evenodd" d="M89.568,307.656c0.209,0.001,0.17,0.407,0.072,0.504
		C89.431,308.159,89.47,307.753,89.568,307.656z"/>
	<path fill-rule="evenodd" clip-rule="evenodd" d="M114.696,491.256c0.056-0.064,0.078-0.163,0.072-0.288
		c-0.231,0.205-0.41,0.208-0.864,0.288c-0.909,0.395-1.652,0.734-2.448,1.439c-0.595,0.029-0.908,0.34-1.44,0.433
		c-0.136,0.104-0.319,0.16-0.288,0.432c-5.227,0.959-9.608,3.461-14.328,5.472c-0.222,0.054-0.088-0.248-0.36-0.144
		c-2.276,1.053-5.299,1.937-7.2,3.6c-0.575,0.072-0.9,0.396-1.368,0.576c-0.204,0.06-0.187-0.102-0.36-0.072
		c-0.119,0.434-0.709,0.395-1.008,0.648c-0.224,3.208-0.525,6.338-0.72,9.576c-0.144,0-0.288,0-0.432,0c0,0.408,0,0.815,0,1.224
		c-0.318,0.071-0.513,1.124,0,1.152c0.035,0.228-0.357,0.026-0.288,0.288c-0.079,0.294,0.441-0.01,0.288,0.359
		c0.072,0.24-0.1,0.236-0.288,0.216c-0.026,0.351,0.035,0.687,0,1.009c-0.029,0.269-0.423,1.37,0,1.655
		c-0.462,0.521,0.204,2.475-0.36,3.097c0.112,1.375-0.245,3.221,0.216,4.248c-0.214,0.291-0.082,0.299,0,0.647
		c0.298,1.271-0.169,3.831-0.072,5.185c0.25,0.271,0.324,0.753,0.216,1.224c-0.025,0.108-0.208,0.21-0.216,0.288
		c-0.055,0.514-0.079,1.81,0,2.231c0.029,0.158,0.235,0.186,0.216,0.288c0.012,0.181-0.161,0.175-0.216,0.288
		c0.266,0.501-0.077,1.521,0,2.017c0.03,0.195,0.324,0.295,0,0.504c0.349,0.69,0.349,2.693,0,3.384c0.275,1.113-0.088,2.754,0,3.888
		c0.029,0.381,0.367,0.912-0.144,1.152c0.129,0.11,0.216,0.264,0.288,0.432c-0.138,3.728-0.041,8.051-0.216,11.809
		c-0.052,1.113,0.161,2.417-0.216,3.239c0.26,0.621,0.325,1.839,0,2.448c0.583,2.407-0.552,5.995,0.504,7.632
		c-0.36,0.498,0.08,0.562,0,1.296c0.022,0.098,0.18,0.061,0.288,0.072c0,0.264,0,0.528,0,0.792c-0.096,0-0.192,0-0.288,0
		c0.223,1.091-0.663,1.687,0.288,2.017c0,1.031,0,2.063,0,3.096c0.115,0.283-0.311,0.025-0.288,0.216
		c-0.114,0.329,0.299,0.133,0.288,0.36c0.282,2.021-0.155,4.354,0,6.552c0.024,0.351,0.33,0.61,0,0.936
		c0.442,0.631,0.776,1.087,0.648,2.376c0.8,0.256,0.108,2.004,0.72,2.448c-0.59,0.784,0.03,1.477-0.288,2.232
		c0.399,1.545-0.107,3.995,0.288,5.544c-0.004,0.211-0.22,0.212-0.288,0.359c0.43,1.235,0.646,3.22,0.432,5.04
		c1.009,0.719,0.382,3.075,0.792,4.393c-0.322,0.696,0.221,1.614-0.144,2.52c0.202,0.563,0.332,0.888,0.36,1.513
		c-0.333,0.122-0.522,0.39-1.08,0.287c-0.041,0.356-0.183,0.63-0.432,0.937c-0.384,0-0.842-0.074-0.864,0.288
		c-0.167-0.122-0.39-0.187-0.72-0.145c-0.162,0.167,0.384,0.236,0.288,0.576c-0.807-0.024-1.282,0.597-1.944,1.08
		c-0.235-0.101-0.635-0.037-0.576-0.432c-0.426,0.09-0.489-0.183-0.72-0.288c-0.283-0.067-0.182,0.25-0.504,0.144
		c-0.285-0.219-0.564-0.443-0.72-0.792c-0.096,0-0.192,0-0.288,0c-0.265,0.317,0.195,0.522,0.072,0.937
		c-0.458-0.069-0.52-0.536-1.08-0.504c-0.1-0.549-0.161-1.136-0.288-1.656c-0.411,0.099-0.436-0.188-0.792-0.145
		c-0.196,0.356-0.678,0.427-0.936,0.721c0.054-0.605-0.429-0.676-0.288-1.368c-1.732-0.351-0.474-4.229-0.936-5.76
		c0.002-0.219-0.362-0.07-0.36-0.288c-0.008-1.596,0.047-3.29-0.144-4.536c-0.086-0.561-0.077-0.967,0.216-1.368
		c-0.156-0.156-0.231-0.393-0.36-0.576c-0.397-3.299-0.09-6.241-0.144-9.936c-0.444-0.399-0.94-1.174-0.432-1.944
		c-0.666-1.509-0.431-3.609-0.36-5.544c-0.16-0.358-0.505-1.171-0.144-1.584c-0.132-0.203-0.19-0.481-0.504-0.504
		c0.046-0.42,0.276-1.61-0.144-1.8c0.379-0.39,0.222-1.697,0.144-2.304c0.006-0.234,0.429-0.051,0.36-0.36
		c-0.092-0.402-0.406-0.302-0.36-0.72c0.006-0.234,0.429-0.051,0.36-0.36c-0.075-0.604-0.668-0.657,0-1.008
		c-0.141-0.483,0.313-1.562-0.288-1.584c-0.046-0.29,0.094-0.766-0.072-0.937c0.385-0.056,0.566-0.854,0-0.863
		c0.104-0.234,0.13-0.923,0-1.152c0.411-0.035,0.576-1.013,0-1.008c0.165-0.963,0.026-2.23,0.072-3.312
		c-0.52-0.457,0.061-2.003-0.36-2.376c0.45-1.262,0.438-3.843,0.288-5.688c0.191-0.169,0.484-0.236,0.36-0.721
		c0.052-0.195-0.339,0.052-0.288-0.144c0-0.792,0-1.584,0-2.376c-0.344-0.71-0.371-1.217,0-2.017c0-4.439,0-8.88,0-13.319
		c0.028-0.268-0.292-0.188-0.216-0.504c0.427-0.485,0.126-1.698,0.216-2.521c-0.072-0.216,0.161-0.127,0.288-0.144
		c0-0.336,0-0.672,0-1.008c0.052-0.196-0.339,0.051-0.288-0.145c0.154-1.051-0.147-2.044-0.144-2.88
		c0.002-0.429,0.355-0.965-0.072-1.296c0.327-0.058,0.092-0.677,0.504-0.648c0-0.048,0-0.096,0-0.144
		c0.134-0.326-0.259-0.125-0.288-0.288c-0.1-0.644,0.226-1.714-0.216-2.016c0.408-0.337,0.234-1.571,0-1.944
		c-0.063-0.231,0.237-0.099,0.216-0.288c-0.192-1.285,0.265-2.542-0.216-3.672c0.329-0.058,0.254-0.896,0.144-1.152
		c0.916-0.548,0.346-2.581,0.504-3.888c-0.497-0.138-0.536,0.184-0.792,0.288c0.057-0.249-0.08-0.304-0.144-0.433
		c0.369-0.462,0.527-0.693,0.936-1.079c0.345-1.755,0.433-4.415,0.144-6.336c-0.077-0.14-0.244-0.188-0.36-0.288
		c0.254-2.608,0.601-6.536,0.864-9.288c0.051-0.537,0.326-1.224-0.072-1.513c0.105-0.318,0.19,0.111,0.504,0
		c-0.295-1.05,0.008-1.886,0.288-2.735c0.083-0.061,0.193-0.095,0.36-0.072c0.344-1.147-0.435-3.331,0.288-4.392
		c-0.753-1.239-1.269-2.716-2.016-3.96c-0.999,0.436-2.526,1.409-3.24,2.592c-0.41,0.069-0.776,0.184-0.792,0.647
		c-1.115,0.277-1.507,1.277-2.304,1.872c-0.277,0.947-0.87,1.579-1.152,2.521c0.068,1.734-1.247,3.089-0.792,4.968
		c-0.408,0.709,0.1,1.513-0.216,2.232c0.037,0.203,0.174,0.306,0.216,0.504c-0.087,1.003,0.17,1.964,0.288,2.664
		c-0.068,1.297,0.641,2.76,0.648,4.176c0.007,1.233-0.04,2.652-0.072,3.888c-0.04,1.537,0.134,3.035-0.288,4.32
		c0.493,1.351-0.583,3.43,0,4.464c-0.268-0.076-0.232,0.151-0.36,0.216c0.115,5.29-0.94,9.469-1.584,14.328
		c-0.934,3.539-1.263,6.979-2.304,10.656c-0.122,1.375-0.473,3.234-1.008,4.607c0.109,0.777-0.413,1.157-0.216,1.801
		c-0.738,1.897-0.777,3.77-1.224,5.615c0.257,0.45,0.051,1.117,0,1.801c-0.104,1.379-0.083,3.259-0.216,4.68
		c-0.096,1.026-0.281,2.146,0.288,3.168c0.212,0.381-0.341,2.015,0.288,2.664c-0.332,1.021,0.147,1.985-0.144,2.808
		c0.087,0.226,0.267,0.357,0.216,0.72c1.152,1.814,1.917,3.592,3.024,5.473c0.001,0.215,0.339,0.092,0.432,0.216
		c0.366,1.777,2.385,2.451,2.52,4.32c0.036,0.496-0.222,0.854,0.072,1.151c-0.328,0.656-0.438,1.531-0.864,2.088
		c-0.407,0.193-0.91,0.291-1.08,0.721c-1.674,0.367-3.123,1.121-5.04,1.224c-0.458,0.024-0.934,0.225-1.368,0.216
		c-1.221-0.024-2.359-0.235-3.6,0.072c-0.301-0.37-1.328-0.017-1.584-0.432c-0.199-0.031-0.067,0.268-0.216,0.288
		c-1.616-0.105-3.879-0.272-5.04,0.216c0.034-0.538-0.872-0.136-1.008-0.504c-0.57,0.39-1.178-0.011-1.8,0
		c-0.855,0.014-1.747,0.477-2.52,0c-0.191,0.048-0.342,0.138-0.504,0.216c-1.689-0.213-2.979,0.547-4.464,0.647
		c-0.812,0.056-1.505-0.096-2.088,0.36c-0.882-0.154-1.378,0.292-2.52,0.36c-0.686,0.041-1.314,0.155-1.8,0.216
		c-1.059,0.131-1.98,0.588-3.024,0.647c-0.426,0.024-0.92,0.438-1.44,0.576c-0.696,0.185-1.403,0.053-1.872,0.433
		c-1.743,0.086-3.726,0.322-5.328,0.216c-0.8-0.054-1.685-0.004-2.376-0.072c-0.576-0.058-1.079-0.496-1.584-0.288
		c-0.414-0.45-1.353-0.375-1.656-0.936c-0.915,0.131-1.271-0.879-2.232-0.937c-0.156-0.546-1.309-0.702-1.296-1.656
		c-0.042-0.174-0.272-0.159-0.432-0.216c0.338-0.325-0.224-0.396-0.216-0.72c0.014-0.563,0.63-0.915,1.08-0.936
		c0.523-0.773,1.056-1.536,1.512-2.377c0.707-0.168,1.377-1.016,2.376-0.575c0.843-0.269,1.599-0.179,2.16-0.721
		c-0.038,0.059-0.075,0.117-0.072,0.217c0.613-0.486,1.826-0.197,2.304-0.937c0.224,0.097,0.335,0.019,0.576,0
		c1.635-0.961,3.236-0.928,4.824-1.944c3.09-0.75,6.271-1.774,9.288-3.096c0.223-0.209,0.475-0.39,0.576-0.72
		c0.606,0.257,0.492-0.6,1.152-0.504c1.083-1.149,2.334-2.131,3.096-3.601c0.083-0.06,0.193-0.095,0.36-0.071
		c1.023-1.474,2.277-2.716,3.024-4.465c0.609-0.303,0.839-0.984,1.152-1.584c0.669-0.69,0.881-1.741,1.152-2.663
		c0.176-2.608,0.156-4.842-0.216-7.272c-0.04-0.16,0.137-0.103,0.144-0.216c-0.309-6.188,0.16-13.931-0.288-19.44
		c-0.171-2.099-0.219-4.921-0.576-7.128c0.22-2.223-0.015-5.341-0.216-7.775c-0.094-1.138-0.279-2.271-0.36-3.385
		c-0.049-0.685,0.071-1.348,0-2.016c-0.151-1.429-0.646-2.688-0.648-4.176c-0.21-0.149-0.252-0.468-0.216-0.864
		c-0.439-0.578-0.067-1.658-0.576-2.52c0.026-2.278-0.669-3.944-0.864-6.192c-0.001-0.311-0.359-0.266-0.36-0.576
		c0.301-0.438,0.086-1.128-0.144-1.512c0.135-1.835-0.448-4.272-0.288-5.977c-0.614-2.441-0.124-5.221,0.072-7.487
		c0.32-3.703,0.166-7.323,0.432-10.584c0.319-0.427,0.346-1.049,0.72-1.44c0.175-0.184,0.514-0.249,0.72-0.432
		c0.199-0.177,0.315-0.472,0.504-0.648c1.338-1.249,3.165-2.128,4.536-3.384c0.807-0.105,1.361-0.463,1.872-0.864
		c1.263-0.417,2.406-0.954,3.456-1.584c0.934,0.104,1.559-0.687,2.592-0.72c0.273-0.183,0.433-0.479,0.936-0.432
		c0.199,0.03,0.067-0.269,0.216-0.288c0.24-0.024,0.32-0.209,0.648-0.145c0.15-0.138,0.444-0.132,0.504-0.359
		c0.22,0.052,0.262-0.074,0.432-0.072c1.396-0.909,3.067-1.541,4.248-2.664c0.783,0.036,1.145-0.475,1.8-0.792
		c-0.532-1.244-1.012-2.54-1.656-3.672c-0.057-1.08-0.621-2.252-1.224-3.024c-0.009-1.116-1.086-2.404-0.504-3.888
		c0.609-0.339,0.87-0.641,1.656-0.72c0.949-0.804,2.375-1.129,3.456-1.801c1.684-0.011,2.89-1.21,4.176-1.655
		c-1.096-1.521-2.477-2.756-3.312-4.536c-0.177-0.159-0.315-0.356-0.576-0.433c-0.013-0.587-0.222-0.979-0.72-1.08
		c-0.251-1.284-1.274-1.798-1.656-2.951c-0.097-0.119-0.184-0.248-0.36-0.288c-0.892-2.3-2.696-4.364-3.672-6.624
		c-0.018-0.091-0.143-0.073-0.144,0c-0.202-0.566-0.278-1.259-0.792-1.512c0.179-0.554-0.373-0.842-0.576-1.297
		c-0.093-0.207-0.057-0.503-0.144-0.72c-0.637-1.596-1.442-3.182-2.304-4.68c-0.039-0.562-0.271-0.929-0.648-1.152
		c-0.354-1.69-1.25-3.451-1.944-5.04c-0.274-1.075-0.655-2.327-1.08-3.023c-0.06-0.204,0.101-0.187,0.072-0.36
		c-1.755-4.629-4.051-8.717-5.688-13.464c-0.27-0.158-0.157,0.146-0.36,0c-0.18-0.296,0.129-0.288,0.072-0.648
		c-0.488-2.06-2.409-4.18-1.224-6.695c0.367-0.018,0.528-0.241,0.504-0.648c0.456-0.12,0.63-0.521,0.864-0.864
		c0.953-0.517,1.42-1.873,2.232-2.735c0.562-0.597,1.306-0.996,1.728-1.584c0.22-0.307,0.253-0.822,0.72-0.792
		c0.067-0.197,0.221-0.308,0.288-0.505c0.699-0.271,1.196-0.965,1.872-1.512c1.26-1.019,2.076-1.932,3.168-3.168
		c0.346-0.392,0.604-0.77,1.152-1.008c0.46-1.075,1.528-1.544,2.016-2.592c0.596-0.341,0.946-0.927,1.296-1.512
		c0.278,0.062,0.256-0.177,0.432-0.217c0.611-0.618,1.055-1.328,1.656-2.016c0.212-0.243,0.513-0.406,0.72-0.648
		c0.535-0.624,0.898-1.402,1.44-2.016c0.584-0.661,1.487-1.086,1.728-2.016c1.435-1.518,2.517-3.388,4.032-4.824
		c0-0.096,0-0.192,0-0.288c0.519-0.36,1.084-1.009,1.08-1.656c0.064,0.056,0.163,0.078,0.288,0.072
		c0.999-1.33,2.191-2.465,3.024-3.96c0.511-0.185,0.846-0.546,0.936-1.152c0.337,0.073,0.239-0.289,0.576-0.216
		c2.034-2.479,4.016-5.008,6.048-7.488c-0.093-1.337,0.19-3.137-0.144-4.031c0.332-1.957-0.035-3.257,0-5.473
		c0.063-0.231-0.237-0.099-0.216-0.288c-0.237-8.171-1.466-15.963-1.008-24.191c0.04-0.16-0.137-0.103-0.144-0.216
		c-0.077-0.596,0.166-1.51-0.144-1.872c0.14-0.372,0.095-1.248-0.216-1.584c0.57-0.92-0.347-2.674,0.36-3.601
		c-0.046-0.361-0.458-0.358-0.504-0.72c0.411-0.688-0.383-1.757,0.216-2.52c-0.214-0.025-0.184-0.296-0.504-0.216
		c0.065-3.068-0.194-5.377-0.144-8.64c0.077-0.14,0.332-0.101,0.432-0.216c0.086-0.182-0.115-0.941,0.072-1.224
		c-0.975-0.306-0.501-1.684-0.504-2.448c-0.002-0.53-0.178-0.864-0.216-1.584c-0.6-11.4-0.625-24.611-1.152-36.288
		c0.714-0.645,0.295-2.227,0.144-3.24c0.285-0.562,0.062-1.076,0-1.728c-0.263-2.768-0.029-6.26,0-8.784
		c0.006-0.537-0.289-0.685,0-1.08c-0.312-1.632-0.065-3.822-0.144-5.688c-0.019-0.149-0.316-0.02-0.36-0.144
		c0.011-0.157,0.182-0.154,0.36-0.144c0.04-0.424,0.022-0.79-0.36-0.792c0.011-0.157,0.182-0.154,0.36-0.144
		c0.066-1.484-0.038-3.145,0-4.968c0.035-0.227-0.33-0.054-0.36-0.216c0-0.216,0-0.432,0-0.648c-0.069-0.261,0.311-0.073,0.36-0.216
		c0.098-0.506-0.089-0.727-0.36-0.864c-0.055-0.416,0.015-0.706,0.36-0.72c-0.019-0.149-0.316-0.02-0.36-0.144c0-0.84,0-1.68,0-2.52
		c0.084-0.06,0.193-0.095,0.36-0.072c-0.433-0.024-0.584-1.162,0-1.152c-0.014-0.586,0.137-1.337-0.36-1.44c0-0.576,0-1.152,0-1.729
		c-0.069-0.261,0.311-0.073,0.36-0.216c-0.009-0.935,0.026-1.751,0.144-2.592c0.049-0.35,0.295-0.744,0.288-1.08
		c-0.013-0.615-0.375-1.08-0.288-1.728c0.071-0.527,0.578-0.907,0.144-1.44c0.05-0.358-0.127-0.943,0.144-1.08
		c0.077-0.269-0.179-0.205-0.144-0.432c0.263-0.266,0.123-0.852,0-1.152c0.407-1.941-0.345-4.347,0.288-6.192
		c0.554-0.184,0.491-0.813,0.504-1.656c0.028-0.269-0.45-0.03-0.504-0.216c-0.118-0.382,0.176-0.353,0.36-0.432
		c-0.046-0.266,0.093-0.717-0.072-0.864c0.022-0.17,0.25-0.134,0.216-0.36c0.055-2.44-0.01-5.002,0.432-7.056
		c0.095-0.074,0.266-0.071,0.36-0.144c-0.238-0.403,0.218-1.066-0.36-1.08c0.159-0.729-0.366-2.142,0.36-2.304
		c-0.163-1.11-0.028-2.516-0.072-3.744c0.288-0.398,0.389-1.925,0-2.304c-0.006-0.27,0.311-0.218,0.216-0.576
		c-0.016-0.344-0.334-0.386-0.216-0.864c0.326-0.442,0.349-1.187,0.648-1.656c0.04-0.352-0.263-0.36-0.432-0.504
		c0.015-1.362,0.236-2.549-0.216-3.672c0.496-0.491,0.067-1.634,0.216-2.448c0.06-0.324,0.317-0.518,0.288-0.792
		c-0.043-0.416-0.463-0.473-0.504-0.792c0.508-1.148-0.049-3.361,0.36-4.608c0.062-0.278-0.12-0.312-0.216-0.432
		c0.443-0.485,0.111-1.334,0.216-2.016c0.063-0.41,0.387-0.732,0.288-1.368c0.21-0.078,0.426-0.15,0.504-0.36
		c-0.08-0.496-0.429-0.723-0.792-0.936c-0.114-1.126,0.572-2.125,0.144-3.096c0.11-0.298,0.023-0.792,0.432-0.792
		c0-0.336,0-0.672,0-1.008c-0.022-0.098-0.18-0.06-0.288-0.072c0.111-0.925-0.152-1.682,0-2.448c0.05-0.25,0.188-0.026,0.288-0.216
		c0.168-0.317-0.133-0.739,0-1.008c0.023-0.191-0.403,0.067-0.288-0.216c-0.072-0.217,0.161-0.127,0.288-0.144
		c-0.198-1.686,0.454-2.906,0.144-4.464c0.021-0.147,0.144-0.192,0.216-0.288c-0.199-0.539,0.012-1.261,0.576-1.44
		c-0.03-0.402,0.145-1.008-0.288-1.008c-0.087-0.352,0.116-0.412,0.288-0.504c0-0.84,0-1.68,0-2.52
		c-0.18-0.18-0.39-0.33-0.288-0.792c-0.072-0.216,0.161-0.127,0.288-0.144c-0.065-0.757,0.118-1.062,0.36-1.368
		c0.022-2.833-0.293-4.423,0-6.84c-0.029-0.21-0.246-0.233-0.36-0.36c0.335-0.768,0.052-2.968,0.144-3.96
		c-0.103-0.306-0.614-0.203-1.008-0.216c-0.056-0.064-0.077-0.162-0.072-0.288c-1.316,0.068-1.822-0.674-3.096-0.648
		c0.013-0.205-0.243-0.141-0.144-0.432c-0.984,0.144-1.076-0.604-2.016-0.504c0.039-0.855-1.069-0.563-1.08-1.368
		c-0.878-0.105-1.806-0.162-2.016-0.936c-0.523,0.115-0.639-0.177-0.936-0.288c-0.364-0.076-0.363,0.213-0.576,0.288
		c-0.398-0.236-1.302-0.327-1.584-0.648c-0.039-0.043,0.046-0.257,0-0.288c-0.587-0.393-1.729-0.068-1.872-0.936
		c-0.688-0.104-1.063-0.521-1.8-0.576c-0.088-0.128-0.052-0.38-0.216-0.432c-0.428-0.292-1.265-0.175-1.368-0.792
		c-0.543-0.345-1.4-0.376-1.656-1.008c-0.783,0.111-0.748-0.596-1.44-0.576c-0.108-0.78-1.349-0.428-1.44-1.224
		c-0.761,0.041-0.762-0.678-1.512-0.648c0-0.096,0-0.192,0-0.288c-1.088,0.008-1.096-1.064-2.16-1.08
		c0.077-0.269-0.27-0.114-0.216-0.36c-0.691,0.067-0.756-0.492-1.296-0.576c-0.255-1.065-1.178-1.462-1.8-2.16
		c0-0.144,0-0.288,0-0.432c1.415-0.112,0.955-2.297,0-2.592c0.072-0.312-0.08-0.399-0.144-0.576c0.627-0.141,0.837-0.699,1.44-0.864
		c0.004-1.598,0.136-2.23,0-3.672c0.035-0.227-0.331-0.054-0.36-0.216c-0.112-1.595,0.155-2.047-0.288-3.096
		c0.163-1.993,0.161-3.673,0.288-5.904c0.095-0.074,0.266-0.071,0.36-0.144c0.115-0.648-0.228-1.646,0.144-1.872
		c-0.359-0.294,0.009-1.115-0.216-1.656c0.074-0.07,0.146-0.142,0.216-0.216c0.128-2.565-0.064-5.693-0.144-8.28
		c-0.417-0.136-0.435-0.669-0.648-1.008c0.293-1.241-0.307-3.422,0.144-4.824c0.083-0.227-0.113-0.175-0.144-0.288
		c0.101-1.442-0.106-2.889-0.288-3.816c-0.007-0.185-0.269-0.116-0.36-0.216c-0.067-0.523,0.019-0.894,0.36-1.008
		c0.121-0.409-0.415-0.162-0.36-0.504c-0.109-0.374,0.329-0.199,0.36-0.432c0-0.576,0-1.152,0-1.728
		c-0.011-0.157-0.182-0.154-0.36-0.144c-0.275-1.38-0.502-2.81-0.576-4.392c-0.503,0.054-0.467-0.799-0.36-1.224
		c0.157-0.62-0.328-1.24,0-1.8c0.167,0.023,0.276-0.011,0.36-0.072c0.234-1.652-0.095-3.087,0-4.968
		c-0.019-0.149-0.316-0.02-0.36-0.144c-0.255-1.856-0.272-3.952-0.576-5.76c-0.956-0.565-0.131-1.609-0.36-2.808
		c-0.069-0.309,0.354-0.126,0.36-0.36c0.069-0.261-0.311-0.073-0.36-0.216c0.08-0.776-0.093-1.298-0.144-1.944
		c0.556,0.1,0.603-0.309,0.648-0.72c-0.075-0.286-0.625-0.096-0.504-0.576c-0.901-0.083-1.36-0.608-2.376-0.576
		c-0.336-0.72-1.328-0.784-2.232-0.936c-0.237-0.698-1.157-0.715-1.872-0.936c-0.027-0.5-0.528-0.527-1.08-0.504
		c-0.279-0.841-1.163-1.088-2.16-1.368c-0.163-0.414-0.426-0.726-0.936-0.792c0.092-0.548-0.15-0.762-0.504-0.864
		c0.686-0.466,0.706-1.598,0.936-2.52c0.167,0.023,0.276-0.011,0.36-0.072c-0.203-1.325,0.282-1.732,0.648-2.592
		c0.639-0.008,0.841-0.455,0.864-1.08c0.639-0.081,0.556-0.533,0.792-1.08c1.021,0.157,0.602-1.126,1.368-1.224
		c0.165-1.202,1.287-1.492,1.44-2.664c0.144,0,0.288,0,0.432,0c-0.069-0.55,0.155-0.805,0.36-1.08c0.192,0,0.384,0,0.576,0
		c-0.087-1.027,0.737-0.799,0.648-1.728c0.096,0,0.192,0,0.288,0c0.098-0.79,0.521-1.254,0.648-2.016c0.096,0,0.192,0,0.288,0
		c-0.08-0.872,0.358-1.227,0.288-2.088c0.17-0.214,0.541-0.227,0.792-0.36c0-0.192,0-0.384,0-0.576
		c0.341-0.067,0.451-0.365,0.792-0.432c-0.388-1.664,1.104-2.385,1.944-1.152c0.369-0.111,0.291-0.669,0.792-0.648
		c-0.016,0.285,0.454,0.373,0.504,0.792c0.411,0.099,0.435-0.189,0.792-0.144c0.079,0.33,0.438,0.379,0.648,0.576
		c0.847-0.544,2.471,0.463,2.808-0.432c0.502-0.07,0.548,0.316,0.576,0.72c0.823,0.273,0.65,1.535,0.936,2.16
		c0.009,0.159,0.305,0.031,0.432,0.072c-0.034,0.585,0.004,1.1,0.36,1.296c-0.104,0.565-0.186,1.652,0.144,2.016
		c0.092,0.284-0.21,0.174-0.216,0.36c0.247,0.245,0.352,1.076,0,1.296c-0.156,0.973,0.264,1.369,0.216,2.232
		c-0.052,0.196,0.339-0.051,0.288,0.144c-0.063,0.441,0.197,1.205-0.288,1.224c-0.073,0.217,0.16,0.128,0.288,0.144
		c0.016,1.211,0.672,2.156,0.576,3.24c0.917,0.498,0.307,1.649,1.008,2.376c-0.028,0.271-0.138,0.304-0.216,0.648
		c0.446,0.682,0.996,1.625,1.08,2.88c0.011,0.157,0.182,0.155,0.36,0.144c-0.114,0.623,0.348,1.329,0.432,1.8
		c0.124,0.688-0.222,1.565,0.504,1.656c-0.119,0.647,0.177,0.879,0.432,1.152c-0.098,0.674,0.242,0.91,0.144,1.584
		c-0.246,0.162-0.428,0.389-0.936,0.288c-0.226,0.326-0.54,0.564-0.936,0.72c0.07,0.79-0.613,0.827-0.432,1.728
		c-0.232,0.08-0.521,0.104-0.648,0.288c0.062,1.248-0.34,2.442,0,3.384c0.182,0.504,0.102,0.926,0.216,1.584
		c-0.505,0.549,0.063,1.174-0.072,1.8c-0.035,0.227,0.33,0.054,0.36,0.216c0.177,2.42,0.019,5.579,0,7.416
		c-0.053,0.294,0.232,0.248,0.144,0.576c-0.016,0.127,0.073,0.361-0.144,0.288c0.391,2.128,0.107,4.16,0.288,6.336
		c0.451,0.389,0.246,1.435,0.288,2.232c-0.035,0.227,0.33,0.054,0.36,0.216c-0.125,0.993,0.426,1.983,0,2.808
		c0.582,2.462,0.097,5.109,0.576,7.488c-0.304,0.392,0.011,1.403-0.288,1.8c0.466,0.905-0.395,2.294,0.288,3.024
		c0.079,0.348-0.235,0.414-0.288,0.72c-0.098,0.568,0.342,1.126,0,1.512c0.119,2.48-0.122,4.486,0.144,6.696
		c-0.444,2.017-0.378,3.828-0.432,6.048c0.051,0.267-0.252,0.18-0.36,0.288c-0.272,1.869-0.059,3.758,0,5.688
		c0.271,0.233,0.643,0.365,0.72,0.792c0.577-0.001,0.584,0.568,1.152,0.576c0,0.096,0,0.192,0,0.288
		c0.617,0.319,1.304,0.568,2.16,0.648c-0.088,0.424,0.411,0.261,0.504,0.504c0.631-0.031,1.092,0.108,1.512,0.288
		c0.127,0.12-0.064,0.241,0,0.504c0.475,0.389,1.384,0.344,1.44,1.152c0.289,0.191,0.7,0.261,1.224,0.216
		c0.327,0.993,1.859,0.78,2.304,1.656c0.272,0.104,0.138-0.198,0.36-0.144c0.649,0.154,0.63,0.709,1.08,0.936
		c1.098-0.21,1.242,0.534,2.16,0.504c0,0.096,0,0.192,0,0.288c1.231-0.152,1.228,0.932,2.592,0.648
		c0.074,0.227-0.017,0.4,0.216,0.576c0.541-0.061,0.796,0.164,1.08,0.36c0.144-0.192,0.48-0.192,0.576-0.432
		c-0.319-2.073-0.134-4.688,0.216-6.552c0.063-0.231-0.187-0.149-0.216-0.288c0.079-1.354,0.305-2.52,0.36-3.384
		c-0.04-0.346-0.184-0.199-0.216-0.432c-0.03-0.222,0.526-0.567,0.072-1.08c0.367-1.608,0.101-2.729,0.288-4.752
		c-0.064-0.232,0.235-0.101,0.288-0.216c-0.035-2.411,0.007-4.745,0.144-6.984c-0.062-0.278,0.176-0.256,0.216-0.432
		c-0.203-0.324-0.42-1.379,0-1.656c-0.317-1.066,0.295-1.812,0.288-2.808c-0.055-0.271,0.382-0.05,0.288-0.36
		c-0.39-0.092-0.491-1.511,0-1.584c0.067-0.355-0.441-0.135-0.288-0.576c-0.073-0.216,0.16-0.127,0.288-0.144
		c0.439-1.752-0.138-3.65,0.504-5.112c-0.058-1.647,0.044-2.782,0.144-4.176c-0.069-0.261,0.323-0.061,0.288-0.288
		c-0.09-0.294-0.4-0.368-0.792-0.36c-0.158-0.827-1.119,0.02-1.584-0.432c-0.335,0.409-0.7,0.788-1.296,0.936
		c-0.311-0.84,0.468-1.228-0.144-1.728c-0.326-0.134-0.125,0.259-0.288,0.288c-0.284,0.092-0.187-0.197-0.288-0.288
		c-0.565-0.035-1.303,0.103-1.656-0.144c0.28-0.751-0.047-1.971-1.08-1.872c-0.023-0.839,0.116-1.516,0.648-1.8
		c0-0.288,0-0.576,0-0.864c-0.011-0.157-0.182-0.154-0.36-0.144c0-0.288,0-0.576,0-0.864c0.591-0.147,0.342-0.962,0.792-1.368
		c-0.11-0.638,0.189-0.867,0.144-1.44c0.301-0.035,0.333-0.338,0.504-0.504c0-0.216,0-0.432,0-0.648
		c0.375-0.585,0.045-1.875,0.72-2.16c0.187-0.885,0.501-1.784,0.648-3.096c0.761-0.049,0.217-0.985,0.648-1.368
		c0.076-0.067,0.229,0.012,0.288-0.072c0.057-0.081-0.051-0.274,0-0.36c0.034-0.057,0.271-0.036,0.288-0.072
		c0.119-0.248,0.062-0.654,0.144-1.008c0.143-0.623,0.491-1.304,0.504-2.376c0.096,0,0.192,0,0.288,0
		c0.045-1.31,0.446-1.819,0.504-3.096c0.269-0.091,0.423-0.297,0.576-0.504c-0.187-1.026,0.439-1.241,0.504-2.016
		c0.096,0,0.192,0,0.288,0c-0.046-0.791,0.375-1.113,0.288-1.944c0.345-0.494,0.727-0.953,0.936-1.584
		c0.545,0.065,0.884-0.076,0.792-0.648c0.293-0.284,0.853-0.299,0.792-0.936c0.748,0.1,1-0.296,1.152-0.792
		c0.561,0.687,1.508,0.987,2.808,0.936c0.237,0.603,0.75,0.931,1.584,0.936c0.046,0.625,0.871,0.473,1.152,0.864
		c0.001,0.17-0.124,0.212-0.072,0.432c0.838,0.737,1.408,1.311,1.44,2.808c0.434,0.214,0.36,0.936,0.792,1.152
		c-0.399,0.64,0.375,1.996-0.216,2.808c0.77,1.005-0.228,2.445,0.216,3.384c-0.288,0.311-0.085,0.864-0.144,1.44
		c-0.01,0.095-0.194,0.267-0.216,0.36c-0.231,0.987,0,2.766,0,4.32c0,1.545,0.155,3.192,0,4.248c-0.08,0.545-0.08,1.341-0.144,2.232
		c-0.057,0.231-0.424,0.152-0.288,0.576c0.417,0.159,0.752,0.4,1.368,0.36c0.046,0.718-0.587,0.757-0.792,1.224
		c0.088,0.499-0.18,0.936-0.576,1.152c0.158,2.036-1.084,3.438-0.288,5.04c-0.263,0.481-0.412,1.077-0.36,1.872
		c0.022,0.19-0.1,0.236-0.288,0.216c0.195,1.9-0.493,3.152-0.144,4.464c-0.071,2.187-0.585,4.328-0.504,6.984
		c0.115,0.283-0.311,0.025-0.288,0.216c0.235,0.196,0.19,0.674,0.576,0.72c-0.14,0.268-0.16,0.656-0.576,0.648
		c-0.105,0.868-0.085,2.103-0.288,2.808c-0.213,0.737,0.521,1.492-0.216,1.872c0.24,1.424-0.028,2.941-0.144,4.248
		c0.387,0.261,0.298,0.998,0.504,1.44c-0.031,0.257-0.325,0.251-0.504,0.36c0.406,1.34-0.241,2.554,0.36,3.456
		c-0.091,0.173-0.568-0.04-0.648,0.144c-0.072,0.24,0.1,0.236,0.288,0.216c0.024,0.265-0.414,0.067-0.288,0.432
		c0.049,0.311,0.439,0.28,0.648,0.432c-0.22,0.236-0.235,0.678-0.648,0.72c-0.019,1.829-0.078,3.176-0.144,4.68
		c0.099,0.309,0.549,0.267,0.648,0.576c0.053,0.485-0.355,0.509-0.216,1.08c-0.045,0.243-0.399,0.177-0.432,0.432
		c0.035,1.209-0.371,2.67-0.144,3.6c-0.25-0.01-0.115,0.365-0.36,0.36c0.189,0.147,0.215,0.457,0.504,0.504
		c0.028,0.341-0.421,0.203-0.504,0.432c0.059,0.242,0.463-0.08,0.36,0.432c1.061,0.308,2.308,0.428,3.528,0.576
		c0.261-0.069,0.073,0.311,0.216,0.36c1.293,0.314,2.968,0.248,4.248,0.576c0.073,0.095,0.07,0.266,0.144,0.36
		c1.131,0.165,2.13,0.462,3.312,0.576c0,0.096,0,0.192,0,0.288c0.955-0.019,1.19,0.682,2.304,0.504
		c0.793,0.815,2.201,1.015,3.744,1.08c0,0.096,0,0.192,0,0.288c1.078,0.002,1.593,0.567,2.88,0.36
		c0.332-0.221,0.741-0.363,0.864-0.792c1.809-0.016,3.49-0.158,4.968-0.504c0.098-0.31,0.075-0.741,0.432-0.792
		c0-0.528,0-1.056,0-1.584c0.051-0.195-0.34,0.051-0.288-0.144c0.353-0.267,0.537-1.928,0-2.16c0.011-0.539,0.031-1.087-0.144-1.44
		c0.333-1.352-0.377-2.813-0.144-4.536c0.012-0.18-0.161-0.175-0.216-0.288c0.234-0.551-0.139-1.516,0.216-1.8
		c-0.131-0.585-0.364-1.008-0.36-1.872c-0.011-0.133-0.244-0.044-0.288-0.144c0.056-1.103-0.312-1.563-0.288-2.304
		c0.263-0.324,0.182-1.192-0.144-1.368c0.272-1.915,0.164-3.849,0-6.192c-0.417-0.786-0.195-2.584-0.144-3.6
		c-0.082-0.182-0.366-0.162-0.504-0.288c0.206-1.065,0.137-2.407,0.144-3.672c-0.05-0.267,0.252-0.18,0.36-0.288
		c-0.117-0.267-0.06-0.708-0.072-1.08c0.438-0.547,0.158-1.693,0-2.304c-0.076-0.268,0.151-0.232,0.216-0.36
		c-0.221-0.394,0.007-0.828-0.504-0.864c-0.094-1.566-0.002-2.579-0.144-4.032c-0.131-0.253-0.534-0.234-0.792-0.36
		c-0.105-0.393,0.509-0.067,0.36-0.504c-0.675-0.429-0.766-1.441-1.728-1.584c-0.003-0.524-0.658-0.397-0.648-0.936
		c-0.337,0.05-0.323-0.253-0.72-0.144c-0.215-0.985-1.203-1.197-1.44-2.16c-0.646-0.026-0.903-0.441-1.08-0.936
		c-0.862-0.074-1.242-0.63-2.16-0.648c0.037-0.445-0.411-0.405-0.504-0.72c0.344-0.987-0.01-1.447,0-2.592
		c-0.096-0.24-0.433-0.239-0.576-0.432c-0.054-0.822,0.253-1.283,0.144-2.16c-0.072-0.216,0.161-0.127,0.288-0.144
		c-0.027-0.819-0.021-1.605,0.36-2.016c-0.575-1.296,0.434-2.119,0.288-3.672c0.232-0.08,0.521-0.104,0.648-0.288
		c-0.003-0.297-0.16-0.4-0.36-0.648c0.263-0.625-0.014-1.79,0.648-2.016c-0.098-0.214-0.143-0.48-0.36-0.576
		c0.625-0.408,0.143-1.361,0.216-1.944c0.222-0.054,0.088,0.248,0.36,0.144c0.191,0.023-0.067-0.403,0.216-0.288
		c-0.109-1.597,0.178-2.798,0.144-4.32c-0.034-0.226,0.194-0.19,0.216-0.36c-0.048-1.344,0.096-2.88-0.072-4.104
		c-0.039-0.255,0.255-0.177,0.216-0.432c-0.302-2.188,0.071-3.752,0-6.264c0.044-0.1,0.277-0.011,0.288-0.144
		c-0.202-1.618,0.809-2.023,1.08-3.168c0.348,0.053-0.171,0.31,0,0.648c0.09,0.246,0.336,0.335,0.72,0.288
		c0.243-0.381,0.167-1.082,0.288-1.584c0.537-0.184,1.248-0.192,1.728-0.432c0.398-0.753,1.069-1.234,1.296-2.16
		c0.24,0.168,0.353,0.464,0.792,0.432c0.307,0.043,0.224-0.304,0.36-0.432c0.288,0,0.576,0,0.864,0
		c-0.056,0.248,0.04,0.344,0.288,0.288c-0.042,0.449,0.062,0.754,0.288,0.936c0.183-0.273,0.178-0.733,0.576-0.792
		c0.493,0.011,0.367,0.641,1.008,0.504c-0.081,0.705,0.585,0.662,1.008,0.864c-0.093,1.077,1.067,0.901,1.944,1.008
		c0,0.48,0,0.96,0,1.44c0.179,0.133,0.277,0.347,0.504,0.432c0.13,0.422-0.296,1.4,0.288,1.368
		c-0.131,0.731,0.287,0.914,0.432,1.368c-0.346,1.605-0.055,3.66,0,5.328c0.105,0.158,0.191,0.337,0.504,0.288
		c0.089,0.679,0.085,1.451,0.432,1.872c-0.251,0.919-0.105,2.094,0.504,2.376c0.021,0.891,0.028,1.797,0.576,2.16
		c-0.026,0.358-0.029,1.069,0.36,1.224c0.05,0.266-0.114,0.318-0.36,0.288c-0.002,0.218,0.362,0.07,0.36,0.288
		c0.015,2.313,0.399,4.257,0.576,6.408c-0.035,0.227,0.33,0.054,0.36,0.216c0.133,0.469-0.211,0.461-0.36,0.648
		c0,0.144,0,0.288,0,0.432c-0.051,0.267,0.252,0.18,0.36,0.288c0.268,2.432,0.41,6.242,0.288,8.136c0.133,0.927,0.226,1.682,0,2.448
		c0.571,0.664,0.076,1.537,0.288,2.592c0.018,0.149,0.316,0.02,0.36,0.144c-0.161,1.517,0.516,3.226-0.072,4.464
		c0.75,0.396-0.111,1.521,0.36,2.16c-0.343,0.359-0.013,0.696,0,1.08c0.012,0.35-0.249,0.698-0.288,1.08
		c-0.013,0.127,0.14,0.253,0.144,0.432c0.004,0.189-0.157,0.328-0.144,0.432c0.046,0.37,0.283,0.718,0.288,1.08
		c0.01,0.744-0.354,1.502,0.144,2.088c-0.291,1.512-0.291,3.168,0,4.68c-0.227,0.223-0.176,0.845,0,1.08
		c-0.138,0.247-0.201,0.568-0.288,0.864c0.322,2.929,0.373,6.277,0.432,9.072c0.007,0.185,0.268,0.116,0.36,0.216
		c-0.113,0.56,0.296,1.641-0.36,1.656c-0.002,0.218,0.362,0.07,0.36,0.288c-0.059,2.118,0.15,3.489,0.288,5.112
		c-0.141,1.103-0.042,3.618,0.144,5.256c0.144,0.071,0.292,0.14,0.432,0.216c0.116,0.234-0.222,1.314,0.216,1.44
		c-0.36,0.384-0.171,1.317-0.216,2.016c0.566,1.162-0.215,3.671,0.936,4.248c0.008,0.368-0.333,0.386-0.432,0.648
		c-0.04,1.208-0.077,2.419-0.36,3.384c-0.424,0.2-0.775,0.472-1.368,0.504c-0.111,0.399,0.358,0.218,0.504,0.36
		c-0.13,0.758-1.808-0.032-1.8,0.864c-1.525-0.109-2.295,0.536-3.672,0.576c-0.185,0.007-0.116,0.268-0.216,0.36
		c-1.113-0.105-1.913,0.103-1.944,1.08c-0.47,0.031-0.91,0.541-1.368,0.144c-0.435,0.261-1.4-0.008-1.8,0.288
		c-0.161,0.367-0.301,0.754-0.648,0.936c-1.439-0.24-3.311-0.049-4.608-0.432c-0.972,0.426-1.999-0.096-2.952-0.144
		c-0.073-0.095-0.07-0.266-0.144-0.36c-1.342-0.169-2.656-0.368-3.96-0.576c0.023-0.167-0.011-0.276-0.072-0.36
		c-0.258-0.042-0.002,0.43-0.288,0.36c-0.381-0.123-0.517-0.491-0.864-0.648c-0.639,0.063-0.9-0.251-1.584-0.144
		c-0.096-0.192-0.378-0.198-0.36-0.504c-1.011-0.189-2.092-0.308-3.024-0.576c-0.073-0.095-0.07-0.265-0.144-0.36
		c-0.91,0.045-1.231-0.497-2.16-0.432c-0.504-1.008-2.153-0.871-3.456-1.08c0.138-0.474-0.537-0.136-0.36-0.648
		c-0.809,0.395-2.143-0.523-2.88,0.072c0.146,0.189,0.142,0.53,0.288,0.72c-0.157,1.713-0.212,4.395-0.288,6.48
		c-0.083,0.061-0.193,0.095-0.36,0.072c0,0.216,0,0.432,0,0.648c0.019,0.149,0.316,0.02,0.36,0.144c0,0.264,0,0.528,0,0.792
		c-0.095,0.073-0.265,0.07-0.36,0.144c0,0.408,0,0.816,0,1.224c0.881,0.262,0.428,1.247,0.648,1.944
		c-0.12,0.121-0.423,0.057-0.648,0.072c0,0.24,0,0.48,0,0.72c0.556,0.095,0.092-0.384,0.648-0.288c0.195,0.885-0.341,1.28-0.288,1.8
		c-0.191,0.049-0.342,0.138-0.504,0.216c-0.076,1.464-0.249,2.682,0,3.96c-0.188,3.536-0.388,7.289-0.432,11.16
		c-0.806,0.209-0.058,0.881,0,1.296c0.033,0.225-0.154,0.23-0.36,0.216c0.131,0.612-0.325,1.813,0.36,1.872
		c-0.01,0.157-0.181,0.154-0.36,0.144c-0.071,0.793,0.157,1.885-0.144,2.448c0.069,0.643,0.132,2.723,0,3.456
		c-0.35,1.936,0.372,4.743-0.144,6.408c0.22,0.604,0.235,1.99,0,2.592c0.754,0.978-0.388,2.973,0.576,3.672
		c-0.626,0.18-0.806,2.793,0.216,2.664c-0.056,0.232-0.325,0.25-0.504,0.36c0.19,0.097,0.473,0.103,0.36,0.504
		c-0.015,0.273-0.327,0.249-0.504,0.36c-0.086,2.216-0.14,3.355,0.144,5.256c-0.096,0-0.192,0-0.288,0
		c-0.112,1.866-0.079,3.107-0.288,4.968c0.069,0.261-0.311,0.073-0.36,0.216c0.021,0.718-0.109,1.283-0.288,1.8
		c0.55,0.53,0.074,1.741,0.288,2.304c-0.493,1.588-0.253,3.616-0.432,5.472c-0.073,0.763-0.246,1.541-0.144,2.304
		c0.07,0.286-0.402,0.03-0.36,0.288c-0.12,0.6,0.45,0.51,0.504,0.936c-0.289,1.055-0.082,2.606-0.144,3.888
		c0.069,0.261-0.311,0.073-0.36,0.216c0.197,1.282-0.35,2.051,0,3.024c-0.301,0.666,0.1,1.094,0.504,1.44
		c-0.008,0.384-0.353,0.16-0.504,0.36c-0.66,0.875,0.523,3.16-0.144,3.96c0.561,0.494-0.362,1.96,0.216,2.448
		c-0.005,0.211-0.274,0.158-0.216,0.432c0.293,0.856,0.081,2.401,0.144,3.672c0.031,0.233,0.47,0.059,0.36,0.432
		c0.069,0.261-0.311,0.073-0.36,0.216c-0.036,1.249,0.003,1.279,0,2.736c0.001,0.239,0.407,0.073,0.504,0.216
		c0.091,0.739-0.248,1.048-0.144,1.8c0.181,0.095,0.175-0.335,0.288-0.072c0.004,0.364-0.43,0.29-0.648,0.432
		c0.146,0.934-0.347,2.507,0.36,2.88c0.086,0.302-0.303,0.128-0.36,0.288c0.083,0.993-0.054,2.629,0,4.032
		c-0.063,0.231,0.187,0.149,0.216,0.288c0.958,13.784,0.916,30.614,1.584,44.568c0.026,0.542,0.181,1.065-0.072,1.512
		c0.527,0.803-0.425,2.385,0.504,2.592c-0.734,0.364-1.028,2.695,0,2.952c0.035,0.227-0.33,0.054-0.36,0.216
		c-0.07,0.334,0.43,0.098,0.36,0.432c-0.016,0.32-0.467,0.205-0.504,0.504c0.086,0.274,0.188,0.533,0.504,0.576
		c0,0.264,0,0.528,0,0.792c-0.209,0.054-0.357,0.171-0.504,0.288c0,0.312,0,0.624,0,0.936c0.084,0.18,0.314,0.214,0.504,0.288
		c0.039,1.37-0.001,2.897,0.144,4.392c-0.128,0.112-0.282,0.198-0.432,0.288c0.103,2.489,0.253,4.931,0.288,7.488
		c0.304,0.112-0.016-0.4,0.288-0.288c0.048,0.384-0.03,0.642-0.216,0.792c0.133,8.771,0.747,17.061,1.512,25.2
		c0.057,0.19,0.338-0.161,0.36,0.144c0.827-0.624,1.623-0.896,2.16-1.728c1.022-0.276,2.223-1.153,3.24-1.656
		c0.412-0.203,1.007-0.24,1.512-0.504c0.342-0.179,1.184-0.442,1.8-0.648c0.13-0.157,0.274-0.302,0.432-0.432
		c0.87-0.341,1.976-0.357,3.024-0.72c0.751-0.26,2.077-0.86,3.168-0.721c0.237-0.102,0.12-0.222,0.216-0.359
		c1,0.071,2.562-0.038,3.6-0.288c0.235-0.02,0.152,0.279,0.36,0.288c0.791-0.278,1.767-0.34,2.664-0.433
		c1.159-0.118,2.505-0.149,3.528-0.216c1.198-0.297,2.345-0.757,3.744-0.647c0.253-0.242,0.368-0.34,0.72-0.36
		c0.391-0.545,0.809-1.063,1.44-1.368c0.196-0.918,1.18-1.135,1.584-2.016c0.578,0.12,1.082-0.76,1.008-1.296
		c0.15,0.03,0.191-0.05,0.288-0.072c0.34-1.574,0.924-3.142,1.296-4.824c0.116-0.525,0.038-1.069,0.216-1.584
		c0.137-0.397,0.279-1.028,0.432-1.656c0.48-1.971,0.809-4.476,1.296-7.056c0.138-0.732,0.53-1.446,0.504-2.088
		c-0.014-0.334,0.019-0.464-0.072-0.792c0.058-0.062,0.197-0.043,0.216-0.144c0.125-1.474,0.034-2.896,0.144-4.536
		c0.104-1.56,0.409-3.247,0.288-4.68c-0.138-1.632-1.323-2.658-1.944-3.888c-0.083-0.661-0.594-0.894-0.792-1.44
		c-1.14-0.444-1.627-1.541-2.16-2.592c-0.25-2.551-0.19-5.119-0.648-7.632c0.084-1.337,0.31-3.495,0.504-4.608
		c0.412-0.088,0.404-0.543,0.648-0.792c0.533-0.543,1.355-0.734,1.872-1.296c0.295,0.007,0.566-0.01,0.576-0.288
		c0.443,0.169,0.73-0.301,1.152-0.216c0.448-1.379,0.435-2.381,0.432-3.96c0.545-2.164,1.037-5.12,1.944-7.344
		c0.003-0.123-0.053-0.187-0.144-0.216c0.333-0.439,0.621-1.55,1.296-2.016c0.234-1.283,1.379-2.021,1.584-3.096
		c0.303,0.123,0.419-0.338,0.72-0.432c0.536-1.217,1.817-1.688,2.448-2.808c0.259,0.12,0.514-0.079,0.576-0.36
		c0.583,0.14,0.963-0.517,1.584-0.576c0.189-0.099,0.333-0.243,0.432-0.432c0.23-0.062,0.223,0.113,0.36,0.144
		c0.185-0.007,0.103-0.281,0.288-0.288c-0.591-1.303-1.172-2.781-1.368-4.536c-0.062-0.552,0.083-1.219,0.072-1.872
		c-0.013-0.716-0.188-1.435-0.144-2.088c0.014-0.208,0.192-0.431,0.216-0.648c0.073-0.659-0.226-1.478-0.072-2.088
		c0.11-0.438,0.534-0.511,0.72-0.936c0.362,0.063,0.542,0.1,0.576-0.288c0.514,0.627,1.458,0.047,2.088,0.648
		c0.192-0.072,0.238-0.291,0.36-0.432c0.306,0.414,1.027,0.413,1.728,0.432c0.201,0.248,0.52,0.188,0.792,0.216
		c0.468,0.559,0.853,0.999,0.792,1.944c-0.128,0.088-0.209,0.223-0.36,0.288c0.104,1.207,0.275,2.155,0.576,3.528
		c0.499,0.588,0.444,1.361,0.72,2.016c0.283,0.672,0.891,1.051,1.368,1.656c0.272,0.345,0.271,0.844,0.648,1.08
		c1.021-0.052,1.759,0.275,2.88,0.504c0.096-0.072,0.268-0.068,0.288-0.216c0.441,0.495,1.53,0.342,2.016,0.792
		c0.541-0.28,1.734,0.087,2.448,0.288c0.138-0.03,0.31-0.026,0.288-0.216c0.792,0.368,1.153,0.199,1.944,0.432
		c0.226,0.034,0.294-0.09,0.36-0.216c0.286,0.415,1.034,0.553,1.584,0.576c1.099,0.536,2.14,1.174,3.312,1.8
		c0.944-1.195,1.748-2.904,2.088-4.464c0.15-0.042,0.233-0.151,0.36-0.216c-0.161-0.45,0.538-0.908,0.36-1.368
		c-0.05-0.194,0.148-0.139,0.216-0.216c-0.29-0.564,0.231-0.992,0.216-1.296c0.247,0.248,0.845-0.079,1.152-0.216
		c0.496,0.175,0.912,0.432,1.439,0.576c0.023,0.168,0.087,0.298,0.145,0.432c0.619,0.125,0.785,0.703,1.079,1.152
		c0.17-0.001,0.213,0.124,0.433,0.072c0.639,0.924,1.755,1.153,1.584,2.88c-0.064,0.654-0.538,1.394-0.648,2.16
		c-0.032,0.224,0.06,0.51,0,0.72c-0.072,0.257-0.365,0.484-0.504,0.792c-0.365,0.813-0.495,1.955-0.864,2.592
		c-0.052,0.09-0.618,0.795-0.792,0.936c-0.139,0.113-0.306,0.162-0.432,0.216c-0.182,0.274-0.319,0.592-0.432,0.936
		c-0.602,0.022-0.699,0.549-0.937,0.936c0.384,2.464,0.861,5.027,1.368,7.56c0.479,1.021,0.432,2.396,0.937,3.24
		c-0.045,1.408,0.666,2.833,1.008,3.96c-0.068,0.619,0.143,1.455,0.504,1.872c-0.392,0.577,0.084,1.167,0.144,1.728
		c0.015,0.139-0.096,0.325-0.071,0.432c0.069,0.305,0.34,0.484,0.432,0.792c0.038,0.128-0.097,0.352-0.072,0.504
		c0.057,0.346,0.172,0.477,0.216,0.864c0.087,0.759,0.471,1.601,0.288,2.448c-0.491,1.333-1.654,1.994-2.231,3.24
		c-0.661,0.059-0.714,0.726-1.225,0.936c-0.094,0.578-0.349,0.995-0.647,1.368c-0.527,2.743,0.848,5.718,1.728,8.352
		c0.484,1.93,0.118,3.67,0.36,5.328c-0.172,0.045-0.317,0.044-0.504,0.216c-0.46,1.138-0.839,1.978-1.944,2.52
		c-0.192,0.224-0.273-0.188-0.432,0c-0.398,0.597-1.207,1.13-1.296,1.8c-1.05-0.063-1.731,0.524-2.593,0.504
		c-0.487-0.011-0.691,0.117-1.151,0.216c-0.354,0.076-0.813-0.055-1.225,0c-0.856,0.114-1.763,0.316-2.52,0.288
		c-1.02-0.038-2.204-0.333-3.024,0.144c-0.272-0.167-0.653-0.39-1.152-0.216c-0.204-0.228-0.612-0.253-0.864-0.432
		c-1.188,0.475-2.037-0.232-3.456-0.288c-0.171-0.117-0.29-0.286-0.432-0.432c-0.544,0.389-1.796-0.219-2.52,0.288
		c-0.132,0.299-0.429,0.435-0.432,0.864c-0.702,0.351-0.926,1.801-1.44,2.736c0,0.144,0,0.288,0,0.432
		c-0.207,0.441-0.35,0.947-0.432,1.513c-0.208,0.104-0.278,0.346-0.432,0.504c0.103,0.512-0.311,0.887-0.072,1.296
		c-0.159,0.104-0.295,0.233-0.432,0.359c-0.368,2.777-1.708,4.58-2.088,7.345c0.792,1.19,0.123,2.897,0.432,4.176
		c-0.509,1.1-0.091,2.158,0.288,3.312c0.433,0.169,0.918,0.665,1.512,0.433c0.107,0.061,0.104,0.231,0.144,0.359
		c1.628,0.116,3.367,1.262,5.256,1.297c0.154-0.034,0.137,0.103,0.144,0.216c1.163-0.14,1.803,0.837,2.808,0.504
		c0.29,0.143,0.617,0.246,0.864,0.432c2.546,0.218,4.214,0,6.12,0.792c0.263,0.064,0.384-0.127,0.504,0
		c1.924,0.572,3.183,1.81,4.536,2.952c0.151,0.175,0.32-0.063,0.432,0.072c0.992,1.479,2.484,2.459,3.168,4.248
		c0.439,0.593,0.985,1.078,1.225,1.872c0.37,0.277,0.435,0.861,0.863,1.08c0,0.144,0,0.287,0,0.432
		c0.868,1.004,1.34,2.404,2.089,3.528c0.379,1.607,1.707,2.644,2.088,4.464c0.253,0.25,0.455,0.553,0.504,1.008
		c0.554,0.67,0.823,1.625,1.368,2.304c0.049,0.892,0.803,1.26,1.224,2.017c0.468,0.839,0.638,1.629,1.296,2.231
		c-0.038,0.302,0.126,0.402,0.145,0.648c0.257,0.175,0.26,0.604,0.575,0.72c0.062,1.052,1.03,1.795,1.152,3.024
		c1.6,3.649,3.742,7.203,5.472,10.943c0.057,0.208,0.264,0.266,0.36,0.433c0.443,1.191,1.145,2.107,1.728,3.384
		c0.348,0.76,0.712,1.338,1.08,2.231c0.276,0.669,0.808,1.197,1.08,1.801c0.357,0.789,0.419,1.681,1.152,2.231
		c-0.065,0.474,0.242,0.573,0.216,1.008c0.141,0.147,0.244,0.332,0.504,0.36c0.008,0.496,0.32,0.688,0.288,1.224
		c0.918,0.522,1.014,1.867,2.088,2.232c-0.056,0.064-0.077,0.162-0.071,0.288c1.369,1.798,2.95,3.386,4.464,5.04
		c0.553-0.071,0.759,0.378,1.224,0.576c0.315,0.135,0.667,0.03,0.864,0.144c0.503,0.29,0.631,1.086,1.296,0.937
		c0.217,0.072,0.128-0.161,0.144-0.288c1.001,0.248,1.359-0.788,2.376-0.937c0.156,0.013,0.033-0.255,0.072-0.359
		c0.704-0.568,1.244-1.3,1.656-2.16c0.755-0.541,1.026-1.565,1.656-2.232c0.029-0.174-0.132-0.156-0.072-0.36
		c0.979-0.844,1.655-1.992,2.231-3.239c0.059,0.038,0.117,0.075,0.217,0.071c-0.056-0.271,0.088-0.344,0.071-0.575
		c1.714-1.502,2.493-3.939,4.177-5.473c-0.042-0.233,0.049-0.335,0.071-0.504c1.01-0.814,1.65-1.997,2.232-3.24
		c0.15,0.031,0.19-0.049,0.288-0.071c1.813-2.65,3.804-5.124,5.616-7.776c0.229,0.062,0.223-0.113,0.359-0.144
		c-0.035-0.228,0.13-0.255,0.072-0.504c0.096,0,0.192,0,0.288,0c0.627-1.342,1.748-2.188,2.304-3.601
		c0.188-0.028,0.217-0.215,0.432-0.216c1.176-2.113,2.958-3.618,4.032-5.832c0.456-0.336,0.864-0.72,1.008-1.368
		c0.223,0.054,0.088-0.248,0.36-0.144c1.166-2.203,2.506-4.613,3.24-7.272c-0.066-0.126-0.025-0.359-0.145-0.432
		c0.482-0.325,0.756-1.314,0.864-2.017c0.423-0.657,0.562-1.597,0.937-2.304c-0.04-1.301,0.45-2.716,0-4.32
		c0.317-1.464,0.112-2.764-0.072-4.104c-0.135-0.981,0.201-1.553,0.504-2.376c0.539-0.013,0.501-0.603,1.008-0.648
		c0.023-0.169,0.114-0.27,0.072-0.504c0.096,0,0.191,0,0.288,0c0.627-0.957,1.378-1.79,1.8-2.952c-0.315-0.009-0.9-0.552-1.08-0.144
		c-0.157-0.011-0.154-0.182-0.144-0.36c-0.39,0.121-0.649-0.178-0.937-0.359c-0.848,0.273-1.607-0.66-2.376-0.36
		c-0.268-0.461-0.778-0.461-1.08-0.504c-0.222-0.031-0.405-0.215-0.647-0.288c-0.096-0.029-0.315,0.062-0.288,0.072
		c-0.394-0.146-0.605-0.472-1.008-0.648c-0.113-0.049-0.358,0.023-0.433,0c-0.724-0.225-1.282-0.898-2.16-0.864
		c0-0.071,0-0.144,0-0.216c-2.419-0.386-4.037-1.864-6.84-2.304c-0.428-0.69-1.647-0.377-2.231-0.936
		c-0.328,0.011-0.283,0.059-0.576,0c-1.127-0.568-2.145-0.807-3.168-1.44c-0.222-0.054-0.139,0.197-0.36,0.144
		c-0.131-0.302-0.664-0.582-0.936-0.504c-0.279-0.537-1.142-0.49-1.44-1.008c-0.192,0.042-0.45-0.213-0.576,0
		c-0.126-0.065-0.132-0.252-0.216-0.36c-0.51,0.082-0.862-1.056-1.656-1.151c-0.146-0.263-0.169-0.646-0.359-0.864
		c0.319-5.426-0.271-10.158-0.216-15.264c0.024-2.335,0.206-4.655-0.217-6.552c0.311-1.938-0.009-4.006-0.071-5.904
		c-0.104-3.109-0.081-6.536-0.288-9.792c-0.239-3.763-0.008-8.07-0.145-11.808c-0.02-0.529,0.191-1.092-0.144-1.512
		c0.563-2.113-0.015-4.905,0.072-7.56c-0.023-0.289-0.274-0.35-0.36-0.576c0.189,0.021,0.057-0.279,0.288-0.216
		c-0.115-2.102-0.041-4.615,0.144-7.2c0.019-0.294,0.269-0.355,0.216-0.72c-1.133-0.79-0.449-2.478,1.152-2.16
		c2.12,0.627,4.599,1.147,6.408,1.08c0.272,0.063,0.298,0.374,0.72,0.288c0.212-0.652,0.295-2.061,0.072-2.808
		c0.332-0.739-0.007-1.977,0.144-2.664c0.08-0.365-0.057-0.654-0.071-1.008c-0.027-0.647,0.261-1.266,0.216-1.872
		c-0.111-1.491,0.066-3.191,0.072-4.824c0.001-0.498-0.13-1.344-0.145-2.088c-0.012-0.61,0.447-1.008,0.432-1.512
		c0.666,0.127,1.386,0.254,2.16,0.072c0.446,0.49,0.699,1.173,1.584,1.224c0.144,0.48,0.579,0.669,0.792,1.08
		c1.215,0.394,1.744,1.472,2.521,2.304c0.073-0.047,0.074-0.166,0.216-0.144c0.608,1.263,2.089,1.654,2.736,2.88
		c0.702,0.018,0.631,0.809,1.439,0.72c0.138,0.199,0.268,0.404,0.504,0.504c0.062-3.763,0.412-7.82,0.648-11.232
		c0.168-2.423,0.165-4.946,1.296-6.912c0.395-0.101,0.537-0.042,0.864-0.144c0.358,0.289,0.772,0.523,1.296,0.648
		c-0.047,0.287,0.19,0.29,0.144,0.576c0.658,0.229,1.025,0.75,1.729,0.936c0.368,0.952,1.393,1.247,1.655,2.304
		c0.293,0.26,0.598,0.507,0.721,0.936c1.278,1.337,1.51,3.722,2.808,5.04c-0.042,0.258,0.084,0.348,0.145,0.504
		c0.887,0.985,1.622,2.122,2.592,3.024c0,0.12,0,0.24,0,0.36c0.522,0.414,0.732,1.14,1.368,1.44c0.831,1.232,1.296,2.832,2.231,3.96
		c0.389-0.212,0.602-0.599,0.72-1.08c1.041-1.12,2.018-2.303,2.809-3.672c0.219,0.003,0.28-0.152,0.432-0.216
		c0.022-0.195,0.105-0.256,0.145-0.576c0.883-0.437,1.103-1.538,2.016-1.944c0.424-1.016,1.428-1.452,1.8-2.52
		c1.374-1.125,1.869-2.894,3.24-3.888c1.689-2.838,4.145-4.497,6.264-6.84c0.46,0.068,1.138-0.354,1.729,0.072
		c0.222,0.054,0.088-0.248,0.359-0.144c0.377,0.17,0.431,0.41,0.792,0.288c-0.299,0.421,0.199,0.573,0.288,0.936
		c0.01,0.037-0.142,0.228-0.144,0.288c-0.006,0.205,0.263,0.497,0.288,0.72c0.035,0.307-0.166,0.684-0.145,1.008
		c0.03,0.441,0.28,0.888,0.36,1.368c0.144,0.863,0.156,1.829,0.288,2.952c0.085,0.721,0.164,1.554,0.288,2.232
		c0.171,0.934,0.532,1.874,0.504,2.664c-0.002,0.054-0.152,0.28-0.145,0.36c0.015,0.143,0.171,0.214,0.217,0.36
		c0.135,0.438-0.179,1.054,0.144,1.656c0.289-0.049,0.665-0.304,1.008-0.576c1.701-1.345,3.312-3.356,4.969-4.752
		c0.173,0.03,0.156-0.131,0.359-0.072c1.318-1.394,2.938-2.485,4.104-4.032c0.529-0.166,0.764-0.628,1.151-0.936
		c0.062-0.168-0.251-0.31-0.071-0.36c0.139-0.14,0.44-0.075,0.359,0.216c0.373-0.572,1.403,0.083,1.872-0.216
		c-0.004,0.389,0.327,0.441,0.576,0.576c0.746,1.014,0.733,2.852,0.864,4.464c0.031,0.392,0.108,1.063,0.071,1.44
		c-0.019,0.196-0.205,0.318-0.216,0.504c-0.034,0.597,0.17,1.197,0.145,1.728c-0.041,0.834-0.295,1.561-0.36,2.376
		c0.347,2.152-0.03,3.861,0,5.976c0.695-0.216,1.159-0.665,1.584-1.152c1.165-0.227,1.701-1.083,2.448-1.728
		c0.096,0,0.191,0,0.288,0c0.689-0.703,1.865-0.918,2.52-1.656c0.689-0.198,1.231-0.545,1.584-1.08
		c0.255,0.146,0.583-0.159,0.648-0.432c0.401,0.169,0.596-0.318,0.936-0.432c0.356,0.153,0.708-0.097,1.08,0
		c0.345,0.089,0.603,0.656,0.864,0.36c0.327,0.201,0.313,0.743,0.576,1.008c-0.005,2.081,0.164,4.275,0.216,6.408
		c0.023,0.981,0.293,1.836,0.36,2.736c0.049,0.668-0.231,1.371,0.144,1.8c0.039,0.255-0.255,0.177-0.216,0.432
		c0.413,5.13-0.067,10.118,0.647,15.696c-0.039,0.224-0.059,0.469-0.144,0.648c0.177,0.824,0.338,2.293,0.144,3.024
		c0.136,0.563,0.185,1.139,0,1.656c0.318,2.578,0.029,5.075,0.288,7.488c0.097,0.893,0.293,1.732-0.071,2.448
		c0.13,0.415,0.24,1.055,0,1.44c0.321,0.503,0.062,1.437,0.432,2.016c-0.418,1.531-0.217,3.578,0.072,5.4
		c-0.021,0.147-0.195,0.141-0.216,0.288c0.453,1.039,0.121,2.196,0.287,3.24c0.156,0.982,0.415,1.96,0.504,2.952
		c0.072,0.795-0.028,1.589,0.072,2.376c0.028,0.22,0.185,0.429,0.216,0.648c0.116,0.799-0.081,1.627-0.071,2.448
		c0.007,0.669,0.215,1.411,0.216,2.088c0.001,0.418,0.079,0.798,0.144,1.296c0.184,1.413-0.051,3.023,0.36,4.248
		c0.19,2.091,0.202,4.264,0.576,6.049c-0.024,0.335-0.254,0.603-0.072,0.936c-0.272,0.04-0.293,0.331-0.432,0.504
		c-1.397,0.115-2.183,0.842-3.456,1.08c-0.183,0.058-0.184,0.297-0.288,0.432c-0.232-0.078-0.489,0.141-0.864,0
		c-0.164,0.139-0.328,0.276-0.216,0.505c-0.368-0.162-0.395,0.153-0.72,0c-1.125,0.845-3.005,1.043-4.104,2.088
		c-0.169-0.171-0.354,0.012-0.576,0c-1.295,0.684-2.381,1.925-3.744,2.304c-1.266,0.726-2.874,1.109-3.96,2.016
		c-0.517-0.077-1.123,0.293-1.512,0.576c-0.282-0.103-0.788-0.031-0.792,0.36c-0.644-0.02-0.666,0.582-1.296,0.576
		c-1.091,0.901-2.806,1.179-3.744,2.231c-0.598-0.167-0.934,0.442-1.512,0.792c-1.045,0.632-2.511,0.542-3.24,1.44
		c-0.129,0.009-0.151-0.088-0.288-0.072c-0.808,0.536-1.752,0.936-2.376,1.656c0.174,0.45-0.125,0.724,0,1.08
		c-1.137,0.531-1.692,2.088-1.584,3.24c-0.269-0.007-0.205-0.081-0.432,0c-0.135,1.049-0.731,1.547-0.937,2.663
		c-0.218,0.335-0.71,0.395-0.72,0.937c-1.943,1.416-2.958,3.762-5.4,4.68c-0.68,0.64-1.257,1.383-2.159,1.8
		c-0.325,0.684-1.088,0.929-1.368,1.656c-0.834,0.558-1.734,1.05-2.376,1.8c-0.12,0-0.24,0-0.36,0
		c-0.113,0.293-0.438,0.346-0.288,0.721c-0.167-0.023-0.276,0.011-0.359,0.071c-0.37,0.975-1.339,1.35-1.513,2.521
		c-0.551,0.457-0.891,1.125-1.008,2.016c-1.313,1.376-1.367,3.879-2.808,4.968c0.166,0.95-0.557,1.593-0.721,2.448
		c-1.343,1.465-2.135,3.481-3.456,4.968c-0.032,0.832-0.83,0.897-0.863,1.729c-1.331,0.84-1.619,2.456-2.809,3.312
		c-0.25,1.046-1.146,1.447-1.367,2.521c-0.059-0.038-0.117-0.075-0.217-0.072c-0.82,1.1-1.465,2.375-2.447,3.312
		c-0.444,1.355-1.417,2.184-1.944,3.456c-0.203-0.06-0.187,0.101-0.36,0.071c-0.927,1.474-2.136,2.664-2.735,4.464
		c-1.165,0.756-1.419,2.422-2.593,3.168c-0.176,0.593-0.679,0.857-0.936,1.368c0.021,0.19-0.15,0.186-0.288,0.216
		c-0.452,1.084-1.012,2.061-1.728,2.881c0.046,0.806-0.666,1.435-0.937,2.159c-0.181,0.043-0.241,0.059-0.504,0.145
		c0,0.12,0,0.24,0,0.36c-0.998,1.041-1.686,2.394-2.376,3.743c-0.319,0.233-0.62,0.483-0.72,0.937
		c-0.492,0.132-0.738,0.51-0.792,1.08c-0.428-0.247-0.38,0.377-0.721,0.432c-0.209,1.158-1.085,1.651-1.512,2.592
		c-0.058-0.038-0.117-0.075-0.216-0.071c-0.339,1.005-1.24,1.447-1.512,2.52c-0.222-0.054-0.088,0.248-0.36,0.145
		c0.075,0.302,0.03,0.222,0,0.575c-0.261,0.268-0.638,0.419-0.648,0.937c-0.373,0.185-0.656,0.581-0.936,0.936
		c-0.426,0.541-0.998,1.024-1.08,1.729c-0.33-0.038-0.29,0.242-0.216,0.432c-0.058-0.038-0.117-0.075-0.216-0.072
		c-1.382,2.339-2.996,4.444-4.393,6.769c-0.575,0.36-0.997,0.875-1.296,1.512c-0.222,0.051-0.138,0.051-0.359,0
		c-0.03,0.174,0.131,0.156,0.071,0.36c-0.598,0.722-1.225,1.415-1.655,2.304c-0.428,0.053-0.61,0.35-0.937,0.504
		c0.002,0.17-0.124,0.212-0.072,0.433c-0.941,0.714-2.046,1.266-3.023,1.943c-0.27-0.006-0.205-0.08-0.433,0
		c-0.687,0.568-1.758,0.291-2.664,0.576c-0.563-0.314-1.287-0.379-1.584-0.792c-0.073,0.047-0.074,0.166-0.216,0.145
		c-1.155-0.885-2.348-1.732-3.456-2.664c-0.137-0.136-0.13,0.042-0.359,0c-0.696-0.953-1.916-1.1-2.664-2.089
		c-0.342,0.006-0.401-0.271-0.792-0.216c-0.255-0.346-0.523-0.677-0.937-0.863c-0.402-0.868-1.57-1.197-1.943-1.872
		c-0.12,0-0.24,0-0.36,0c-0.766-0.862-1.206-1.658-2.088-2.448c-0.026-0.454-0.316-0.644-0.648-0.792
		c-0.913-1.751-2.441-2.887-3.384-4.608c-0.486-0.354-0.632-1.048-1.152-1.368c-0.748-1.459-1.685-2.73-2.663-3.96
		c-1.38-2.557-2.736-5.136-4.465-7.344c-0.757-1.595-1.602-3.102-2.592-4.464c-0.236-0.699-0.538-1.334-1.08-1.728
		c-0.129-0.472-0.204-0.996-0.647-1.152c-1.123-2.981-3.451-4.757-4.393-7.92c-1.081-1.547-1.877-3.365-2.952-4.896
		c-0.358-0.512-0.835-0.904-1.224-1.368c-0.239-0.284-0.278-0.761-0.72-0.863c-0.107-0.493-0.495-0.705-0.576-1.225
		c-0.143-0.119-0.092,0.007-0.288,0c-0.353-0.728-0.936-1.224-1.296-1.943c-0.134,2.269-0.932,4.409-1.44,6.695
		c-0.103,0.138-0.223,0.258-0.36,0.36c0,0.168,0,0.336,0,0.504c-0.088,0.2-0.239,0.337-0.36,0.504
		c-0.645,3.467-2.76,5.754-3.888,9.072c0.243,2.366,0.613,4.169,1.008,6.264c0.047,0.263-0.048,0.384-0.144,0.504
		c1.081,2.221,0.947,4.713,1.152,7.488c0.083,0.182,0.117,0.411,0.288,0.504c-0.117,0.778,0.264,1.412,0.288,2.088
		c0.007,0.188-0.1,0.391-0.072,0.576c0.066,0.441,0.391,0.812,0.504,1.225c0.105,0.385,0.047,0.817,0.144,1.224
		c0.41,1.731,1.092,3.647,1.512,5.328c0.115,0.461,0.45,0.896,0.576,1.368c0.304,1.135,0.416,2.343,0.864,3.312
		c0.443,1.912,0.859,4.185,1.152,6.408c0.631,0.071,1.319,0.242,1.872,0.072c0.352,0.312,0.85,0.061,1.152,0.359
		c4.479,0.354,7.384,1.806,11.808,1.513c0.692,0.189,1.656,0.419,2.305,0.287c0.553,0.427,1.419,0.208,2.159,0.433
		c0,0.096,0,0.191,0,0.288c0.502-0.31,1.946-0.007,2.881,0.144c1.121,0.182,2.325,0.441,2.951,0.864
		c0.406-0.182,0.774,0.085,1.225,0.216c1.534,0.446,3.421,0.57,4.824,1.08c1.424-0.158,2.912,0.574,4.176,0.576
		c0.049,0.167,0.239,0.192,0.288,0.359c0.791-0.154,1.818,0.586,2.664,1.009c1.298,0.318,2.846,0.472,3.743,1.151
		c0.444,0.337,0.53,0.931,1.009,1.225c0.242,0.698,0.544,1.987,0,2.735c-0.077,1.287-0.535,2.259-0.721,3.24
		c0.99,1.134,0.532,2.801-0.359,3.816c-0.29,1.673-1.362,2.738-1.944,4.319c1.654,0.925,4.4,0.961,6.48,1.872
		c0.334-0.26,0.541,0.106,1.08,0.216c0.739,0.151,1.541,0.024,2.231,0.072c0.809,0.371,1.753,0.548,2.592,0.648
		c1.057,0.681,2.24,0.985,3.385,1.368c0.156,0.013,0.229-0.06,0.216-0.217c0.505,0.719,1.828,0.62,2.447,1.225
		c0.409-0.036,1.259,0.076,1.44,0.504c0.168-0.107,0.311,0.024,0.36-0.072c0.133,0.011,0.044,0.244,0.144,0.288
		c3.739,0.921,6.338,1.936,9.432,3.528c0.009,0.304,0.261,0.364,0.36,0.576c0.335-0.071,0.435,0.093,0.648,0.144
		c0.056,0.16,0.151,0.28,0.144,0.504c0.212,0.269,0.435,0.525,0.864,0.576c0.241,0.479,0.487,0.953,0.936,1.224
		c-0.208,0.4,0.274,0.709,0.36,1.08c0.114,0.496-0.098,1.078,0.288,1.512c-0.424,1.941,0.11,4.028,0.072,6.192
		c-0.018,0.971,0.092,1.976,0,2.952c-0.103,1.091-0.357,2.157-0.504,3.24c-0.213,1.568-0.434,2.918-0.576,4.319
		c-0.058,0.567,0.073,1.157-0.288,1.513c-0.037,0.875-0.082,1.742-0.504,2.231c-0.019,1.494-0.439,2.585-0.864,3.672
		c-0.896,5.057-2.308,9.996-2.952,14.328c-0.064,0.056-0.162,0.078-0.288,0.072c-0.064,1.536-0.581,3.199-0.936,4.68
		c-0.095-0.025-0.113-0.126-0.216-0.144c-0.063,0.231,0.187,0.149,0.216,0.288c-0.597,3.406-1.283,6.561-1.944,9.576
		c-0.549,1.168-0.471,2.874-1.008,4.031c0,0.216,0,0.433,0,0.648c-0.734,0.87-0.337,2.195-1.08,3.168
		c-0.034,0.438,0.135,0.646-0.144,0.792c0.157,0.637-0.04,1.067-0.217,1.512c0.025,0.466,0.069,0.743-0.144,1.08
		c0.095,0.444,0.034,1.126-0.216,1.44c0.247,1.072-0.655,2.022-0.288,3.096c-0.622,1.408-0.942,3.152-1.225,4.824
		c-0.153,0.912-0.041,1.88-0.071,2.735c-0.033,0.908-0.286,2.007-0.36,2.952c-0.063,0.809-0.409,1.782-0.576,2.88
		c-0.097,0.637-0.131,1.189-0.216,1.801c-0.441,0.32-0.166,0.867-0.216,1.296c-0.113,0.965-0.517,2.107-0.72,3.312
		c-0.049,0.288-0.26,0.62-0.288,0.937c-0.023,0.255,0.103,0.523,0.071,0.792c-0.125,1.078-0.324,2.215-0.432,3.384
		c-0.134,1.456-0.773,2.429-0.432,3.96c0.177,0.795,0.413,1.561,0.863,2.232c-0.121,0.432,0.005,0.672,0.217,0.936
		c-0.559,0.708,1.116,1.559,1.655,2.088c0.305,0.299,0.63,0.998,0.864,1.296c0.414,0.526,1.143,0.939,1.368,1.44
		c0.12,0,0.24,0,0.36,0c0.966,1.073,2.271,1.809,3.672,2.447c0.511,0.833,1.415,1.273,1.943,2.089
		c0.815,0.133,1.48,1.007,2.521,1.151c1.751,1.272,3.972,2.076,6.336,2.736c0.247,0.031,0.403-0.028,0.576-0.072
		c0.207,0.496,0.689,0.212,1.08,0.216c1.274,0.015,2.77,0.213,3.888,0.433c1.309-0.327,2.65-0.023,3.815-0.072
		c0.226,0.447,1.158,0.186,1.44,0.576c0.661-0.198,1.26,0.317,1.8,0.647c0.065,0.672,0.602,1.161,0.792,1.872
		c0.282,1.051,0.038,2.234,0.145,3.456c0.068,0.261-0.312,0.073-0.36,0.216c-0.055,0.198-0.095,0.562-0.144,0.648
		c-0.524,0.912-1.834,0.853-2.664,1.44c-0.721,0.085-1.489,0.372-2.232,0.504c-0.109,0.019-0.265-0.025-0.288,0.216
		c-0.05-0.201-0.748-0.237-0.792,0c-0.501-0.406-1.602-0.13-2.448-0.216c-0.782-0.08-1.367-0.554-2.159-0.072
		c-0.217-0.137-0.86-0.382-1.225-0.072c-0.19-0.216-0.526-0.257-0.864-0.144c-0.385-0.447-1.192-0.045-1.728-0.072
		c-0.184-0.01-0.859-0.119-1.152-0.072c-0.271,0.044-0.522,0.245-0.792,0.288c-0.76,0.122-1.518-0.276-2.231,0
		c-1.074-0.452-2.123-0.448-3.312-0.647c-0.226-0.034-0.203,0.181-0.288,0.288c-0.16-0.152-0.287-0.337-0.432-0.505
		c-0.575,0.051-0.997-0.394-1.584-0.647c-1.146-0.495-2.661-0.409-3.6-1.152c-0.561-0.016-0.936-0.217-1.225-0.504
		c-0.783-0.068-1.249-0.01-1.656-0.432c-0.702,0.394-2.117-0.05-2.808-0.072c-0.074-0.165-0.148-0.331-0.288-0.432
		c-0.884,0.023-1.794-0.417-2.448,0.071c-1.271-0.298-2.209,0.276-3.456-0.287c-0.371,0.219-0.622,0.177-1.224,0.216
		c-0.21,0.018-0.248-0.136-0.36-0.216c-0.387,0.277-0.685,0.475-1.296,0.287c-0.134,0.059-0.291,0.094-0.359,0.217
		c-2.721,0.337-4.535-0.046-7.128-0.864c-1.128-0.728-2.216-1.686-3.744-1.44c-0.693-0.555-1.639-0.857-2.376-1.367
		c-0.244-0.428-0.316-1.166-0.648-1.297c0.1-0.236,0.17-0.502,0.145-0.863c0.114-0.149,0.156-0.372,0.359-0.433
		c-0.039-0.104,0.084-0.372-0.071-0.359c0.46-0.404,0.377-1.352,0.936-1.656c0.505-1.648,0.887-3.419,1.512-4.896
		c0.043-0.101,0.05-0.189,0.217-0.216c0.029-0.173-0.132-0.156-0.072-0.359c0.478-0.315,0.605-1.362,0.647-1.872
		c0.728-0.7,0.834-2.024,0.792-3.168c0.568-0.825,0.882-2.064,0.792-3.168c0.438-0.769,0.396-1.574,0.648-2.521
		c0.05-0.242-0.148-0.236-0.216-0.36c0.635-3.411,0.655-6.552,0.863-10.008c0.068-1.133,0.52-2.561,0.217-3.672
		c0.273-0.487,0.074-1.585,0.144-2.376c0.129-1.479,0.601-2.934,0.432-4.248c0.465-1.174,0.162-2.339,0.217-3.6
		c0.099-2.293-0.07-4.225-0.433-6.912c-0.366-2.726-0.458-5.255-0.288-7.632c0.147-2.061-0.03-3.988,0.288-5.832
		c0.182-1.053,0.181-2.16,0.288-3.24c0.284-2.84,1.242-5.949,0.648-8.784c1.717-3.836,2.043-8.379,3.168-12.384
		c0.157-0.561,0.196-1.125,0.359-1.944c0.096-0.477,0.487-1.091,0.721-1.8c0.393-2.392-0.534-4.188-1.008-5.76
		c-0.838-0.435-1.016-1.529-2.089-1.729c0-0.096,0-0.191,0-0.288c-1.177-0.55-2.285-1.17-3.6-1.584
		c-0.107,0.085-0.295,0.09-0.36,0.217c-0.127-0.065-0.118-0.266-0.288-0.288c-0.759,0.152-1.17-0.646-1.943-0.36
		c-0.913-0.944-2.365-0.189-3.384,0.072c-1.489-0.138-3.141-0.621-4.32-1.296c-1.096-0.021-2.006-0.438-2.952-0.504
		c-2.2,3.763-4.835,6.645-6.912,10.512c-0.058,0.278-0.352,0.32-0.504,0.504c-0.388,0.836-0.808,1.641-1.512,2.16
		c-0.704,0.904-0.988,2.229-2.305,2.52c-0.257-0.03-0.346-0.229-0.359-0.504c-0.859,0.19-2.113-0.35-2.809-0.792
		c-0.658,0.399-0.951,0.106-1.584-0.144c-0.243-0.004-0.312,0.167-0.432,0.288c-0.315,0.075-0.236-0.244-0.504-0.217
		c-0.17-0.176-0.134,0.108-0.36,0.072c-1.2-0.331-2.561-0.509-4.031-0.863c-0.347-0.084-0.779-0.116-1.08-0.217
		c-0.084-0.027-0.125-0.199-0.217-0.216c-0.428-0.079-0.923,0.037-1.368,0c-1.04-0.085-2.445-0.35-3.24-0.647
		c-0.54-0.203-1.375-0.376-1.872-0.433c-0.359-0.04-0.58,0.061-0.864-0.216c-1.085-0.062-2.35-0.18-3.168-0.576
		c-1.334,0.213-2.761-0.203-3.816-0.359c-0.148,0.02-0.144,0.191-0.216,0.287c-0.651-0.467-1.597-0.394-2.52-0.504
		c-1.029-0.122-2.216-0.391-3.024,0c-0.142,0.987,0.522,1.706,0.432,2.593c0.05,0.189,0.328,0.151,0.36,0.359
		c-0.058,0.206-0.241,0.287-0.288,0.504c0.334,1.821,0.481,4.031,0.288,6.12c0.356,0.539,0.059,1.041,0,1.584
		c-0.193,1.78-0.086,3.643-0.36,5.328c-0.032,0.199-0.235,0.381-0.288,0.576c-0.174,0.648-0.106,1.36-0.216,2.016
		c-0.029,0.174-0.151,0.258-0.216,0.433c-0.342,0.924-0.209,1.947-0.36,2.952c-0.05,0.328-0.299,0.602-0.36,0.936
		c-0.117,0.641,0.031,1.32-0.288,1.872c0.108,1.245-0.803,2.685-0.432,3.96c-0.38,1.598-0.139,3.74,0.288,5.256
		c-0.06,1.04,0.105,2.028,0.36,2.736c0.04,0.159-0.138,0.103-0.144,0.216c0.421,1.427,0.457,3.239,1.296,4.248
		c0.054,0.222-0.198,0.138-0.144,0.36c0.781,2.555,1.952,4.72,3.672,6.336c-0.023,0.167,0.012,0.276,0.072,0.359
		c0.191,0.337,0.634,0.422,0.72,0.864c0.993,0.52,1.443,1.581,2.448,2.088c0.085,0.154,0.078,0.402,0.216,0.504
		c0.341,0.379,1.238,0.202,1.728,0.433c0.192-0.048,0.45-0.03,0.576-0.145c1.654,0.328,3.363,0.092,4.824-0.36
		c0.744,0.078,2.768-0.421,3.744-0.792c0.612-0.232,1.338-0.74,1.944-1.008c1.447-0.639,2.963-1.398,3.889-2.592
		c1.224-0.695,1.88-1.96,3.023-2.736c1.524-2.1,3.627-3.621,4.68-6.191c0.107,0.083,0.182,0.083,0.288,0
		c1.186-1.639,1.681-3.963,2.16-6.12c0.035-2.608,0.926-4.875,1.225-7.272c0.001-0.215,0.187-0.244,0.216-0.432
		c0.031-0.248-0.028-0.403-0.072-0.576c0.312-0.273,0.268-0.531,0.288-1.008c-0.814,0.32-1.524,0.102-2.304-0.145
		c-0.131-0.444-0.379-0.772-0.792-0.936c0.089-0.638-0.083-0.953-0.36-1.368c0.326-0.838-0.305-1.648-0.144-2.448
		c0.078-0.391,0.388-0.654,0.359-1.079c-0.02-0.261,0.315-0.165,0.433-0.288c0.946-2.245,2.783-3.601,3.672-5.904
		c0.203,0.06,0.187-0.102,0.359-0.072c0.856-1.208,1.623-2.505,2.448-3.744c0.016-0.263,0.099-0.275,0-0.504
		c0.402-0.172,0.552-0.653,0.432-1.151c0.353-0.925,1.192-0.283,1.801-0.217c0.085,0.154,0.077,0.402,0.216,0.505
		c0.22,0.052,0.263-0.074,0.432-0.072c0.474,0.75,1.144,1.304,1.656,2.016c0.453,1.779,0.926,3.538,1.8,4.896
		c0.352,1.4,0.971,2.533,1.512,3.744c0.041,0.785-0.023,1.741,0.288,2.52c-0.437,0.271-0.283,0.63-0.504,1.224
		c-0.097,0.263-0.695,0.571-0.576,1.152c-0.891,0.309-1.274,1.125-2.376,1.224c-0.278,0.105-0.468,0.3-0.72,0.433
		c-0.862-0.282-1.669,0.364-2.231,0.504c-0.272,0.067-0.45-0.126-0.648,0c-0.556,0.353-0.485,1.579-0.72,2.592
		c-0.049,0.212-0.25,0.522-0.288,0.72c-0.068,0.353,0.063,0.724,0,1.08c-0.012,0.063-0.198,0.157-0.216,0.217
		c-0.197,0.663-0.297,1.208-0.217,1.871c-0.122,0.273-0.449,0.522-0.216,0.937c-0.68,0.59-0.168,2.018-0.72,2.664
		c0.075,0.236-0.046,0.317,0.144,0.504c-0.429,1.764-0.625,3.553-1.079,5.399c-0.072,0-0.145,0-0.217,0
		c0.073,0.574-0.397,0.938-0.575,1.368c-0.122,0.293-0.064,0.649-0.217,0.937c-0.108,0.204-0.497,0.445-0.72,0.792
		c-0.145,0.226-0.176,0.562-0.288,0.72c-0.236,0.336-0.663,0.517-0.864,0.864c-0.085,0.146-0.046,0.363-0.144,0.504
		c-0.271,0.391-0.905,0.595-0.937,1.296c0.009,0.243,0.313-0.009,0.145,0.36c-0.268,0.121-0.142-0.016-0.288-0.145
		c-0.53,0.526-1.11,1.002-1.368,1.8c-0.581,0.188-0.949,0.587-1.151,1.152c-0.638,0.275-1.109,0.715-1.368,1.368
		c-1.678,1.274-2.713,3.191-4.896,3.96c-0.096,0.265-0.544,0.176-0.576,0.504c-1.266,0.268-2.119,0.696-3.023,1.224
		c-2.843,0.669-4.966,1.514-7.488,1.44c-0.16,0.056-0.39,0.042-0.432,0.216c-0.593-0.316-1.277-0.261-1.944,0.072
		c-0.226,0.034-0.19-0.194-0.36-0.216c-1.191-0.075-2.446-0.236-3.6-0.433c-1.615-0.274-2.815-1.279-4.464-1.655
		c-0.106-0.402-0.44-0.133-0.504-0.576c-0.3,0.036-0.318-0.211-0.648-0.145c-0.809-0.702-1.551-1.473-2.52-2.016
		c-0.338-0.814-1.168-1.136-1.512-1.944c-0.096,0-0.192,0-0.288,0c-0.402-1.086-1.056-1.92-1.8-2.664
		c-0.575-1.489-1.397-2.731-1.728-4.464c-0.032-0.256-0.261-0.315-0.36-0.504c-1.747-5.324-2.373-12.695-1.224-18.648
		c-0.04-0.128-0.037-0.299-0.144-0.359c-0.089-0.233,0.233-0.055,0.144-0.288c0.077-0.269-0.179-0.205-0.144-0.432
		c0.281-0.324,0.416-1.14,0.288-1.801c0.141-0.288,0.402-0.984,0.144-1.224c0.203-0.459,0.324-1.1,0.432-1.728
		c0.239-1.396,0.454-3.1,0.432-4.393c0.008-0.136,0.238-0.05,0.216-0.216c0.617-5.615,1.078-10.821-0.504-15.912
		c-4.586-0.197-8.075-0.648-12.672-0.36c-0.104-0.031,0.007-0.062,0-0.144c-0.258-0.042-0.348,0.084-0.504,0.144
		c-0.168-0.023-0.31-0.073-0.36-0.216C119.108,491.4,116.625,490.443,114.696,491.256z M117.936,41.976c0.144,0,0.288,0,0.432,0
		C118.467,41.426,117.93,41.652,117.936,41.976z M96.552,374.328c-0.788,0.635-1.745,0.841-2.88,1.225
		c-0.605,0.521-0.88,0.63-1.656,0.792c0.17,0.675-0.279,0.729-0.432,1.08c-0.118,0.573,0.451,0.461,0.432,0.936
		c-0.154,0.535-0.055,0.451,0.144,0.864c-1.062,20.563-2.235,41.013-3.312,61.56c2.228-0.771,4.45-1.55,6.48-2.52
		c0.272-0.559,0.938-0.511,1.44-0.792c0.383-0.215,0.701-0.629,1.152-0.864c0.67-0.349,1.561-0.569,2.088-0.936
		c0.084-0.059,0.221-0.022,0.288-0.072c0.292-0.215,0.527-0.578,0.792-0.792c0.3-0.242,0.733-0.377,0.792-0.792
		c0.161-0.197-0.098-0.436-0.072-0.72c0.465-0.334,0.219-1.13,0.288-1.944c0.073-0.872,0.334-1.722,0-2.448
		c0.099-0.116,0.254-0.177,0.216-0.432c-0.286-2.324,0.422-5.063,0.072-7.488c0.136-0.241,0.194-0.487,0.216-0.72
		c0.239-2.554,0.34-5.833,0.504-8.064c0.164-2.242,0.465-4.008,0.792-6.048c0.018-0.109-0.086-0.268-0.072-0.359
		c0.026-0.174,0.19-0.277,0.216-0.433c0.465-2.861,0.972-5.479,0.864-8.136c0.46-1.22-0.03-2.48-0.288-3.601
		c-0.132-0.571-0.137-1.123-0.288-1.584c-0.111-0.337-0.205-0.821-0.36-1.224c-0.643-1.663-1.444-3.283-1.8-4.968
		c-0.193-0.917-0.21-1.897-0.432-2.809c-0.046-0.19-0.186-0.382-0.216-0.575c-0.169-1.096-0.153-2.2-0.288-3.312
		c-0.051-0.418-0.297-0.863-0.36-1.296c-0.206-1.425-0.065-3.014-1.008-4.248C98.558,373.803,97.921,374.226,96.552,374.328z
		 M74.592,389.52c-1.36,0.824-2.506,1.862-3.6,2.952c-0.155,0.156-0.374,0.25-0.648,0.288c-0.046,0.266-0.116,0.508-0.216,0.72
		c-0.47-0.166-0.592,0.596-1.08,0.648c-0.775,0.761-1.333,1.738-2.304,2.304c-0.108,0.754-0.886,1.065-0.792,1.8
		c-0.373,0.06-0.496,0.368-0.72,0.576c-0.335,0.984-0.899,1.74-1.512,2.448c-1.141,3.467,0.788,6.115,1.656,9.216
		c0.249-0.009,0.339,0.141,0.504,0.216c0.056,0.545,0.554,1.27,0.648,2.016c0.456,0.745,0.99,1.41,1.224,2.376
		c0.592,0.44,0.714,1.351,1.224,1.872c1.192,3.063,2.384,5.715,3.744,8.641c0.3,0.012,0.277,0.347,0.504,0.432
		c0.513,1.215,1.03,2.426,1.872,3.312c0.596,1.3,1.188,2.604,1.944,3.743c0.608-15.88,1.399-31.96,1.944-47.664
		C77.475,386.739,75.941,388.038,74.592,389.52z M80.352,616.32c0,0.048,0,0.096,0,0.145c0.085,0.077,0.626,0.202,0.504-0.145
		C80.811,616.167,80.413,616.252,80.352,616.32z"/>
</g>
</svg>
